<svg width="25" height="25" viewBox="0 0 25 25" fill="none" xmlns="http://www.w3.org/2000/svg">
<path d="M12.3115 0C19.111 0 24.623 5.51206 24.623 12.3115C24.623 19.111 19.111 24.623 12.3115 24.623C5.51206 24.623 0 19.111 0 12.3115C4.63865e-06 5.51206 5.51206 4.63879e-06 12.3115 0ZM12.6299 7.08496C11.8118 7.08496 11.1078 7.30078 10.5195 7.73242C9.93489 8.16406 9.48608 8.79095 9.17285 9.6123C8.8631 10.4338 8.70801 11.424 8.70801 12.583C8.70801 13.7456 8.86306 14.7395 9.17285 15.5645C9.48263 16.3894 9.92993 17.0176 10.5146 17.4492C11.0995 17.8809 11.8049 18.0991 12.6299 18.1025C13.4512 18.1025 14.1546 17.8866 14.7393 17.4551C15.324 17.02 15.7713 16.3908 16.0811 15.5693C16.3908 14.7444 16.5459 13.7489 16.5459 12.583C16.5459 11.4239 16.3885 10.4352 16.0752 9.61719C15.7654 8.79577 15.3182 8.16891 14.7334 7.7373C14.1488 7.30241 13.4476 7.08504 12.6299 7.08496ZM12.6299 8.45312C13.1066 8.45323 13.5168 8.61346 13.8613 8.93359C14.2094 9.25036 14.4757 9.71687 14.6602 10.333C14.8481 10.9456 14.9424 11.6955 14.9424 12.583C14.9424 13.9197 14.7369 14.9418 14.3262 15.6484C13.919 16.3547 13.3536 16.7079 12.6299 16.708C12.1461 16.708 11.7313 16.5515 11.3867 16.2383C11.0421 15.9215 10.7759 15.4564 10.5879 14.8438C10.4034 14.2276 10.3115 13.4741 10.3115 12.583C10.315 11.2498 10.5219 10.2277 10.9326 9.51758C11.3434 8.80774 11.9095 8.45312 12.6299 8.45312Z" fill="#CC1F1F"/>
</svg>
